PathFileType	4	(X/Y/Z)	44_1_34_p1_0-193_filt_butterworth.trc
DataRate	CameraRate	NumFrames	NumMarkers	Units	OrigDataRate	OrigDataStartFrame	OrigNumFrames
59.0	59.0	6	27	m	59.0	144	193
Frame#	Time	RHip			RKnee			RAnkle			RBigToe			RSmallToe			RHeel			LHip			LKnee			LAnkle			LBigToe			LSmallToe			LHeel			Neck			Head			Nose			RShoulder			RElbow			RWrist			RThumb			RIndex			RPinky			LShoulder			LElbow			LWrist			LThumb			LIndex			LPinky			
		X1	Y1	Z1	X2	Y2	Z2	X3	Y3	Z3	X4	Y4	Z4	X5	Y5	Z5	X6	Y6	Z6	X7	Y7	Z7	X8	Y8	Z8	X9	Y9	Z9	X10	Y10	Z10	X11	Y11	Z11	X12	Y12	Z12	X13	Y13	Z13	X14	Y14	Z14	X15	Y15	Z15	X16	Y16	Z16	X17	Y17	Z17	X18	Y18	Z18	X19	Y19	Z19	X20	Y20	Z20	X21	Y21	Z21	X22	Y22	Z22	X23	Y23	Z23	X24	Y24	Z24	X25	Y25	Z25	X26	Y26	Z26	X27	Y27	Z27	
144	2.440677966101695	0.3113967339632499	0.5206794098812708	1.0214891987955275	0.3317455412187291	0.5647584437716027	1.47676664641907	0.3584404058668505	0.6560910506520478	1.8605520640926012	0.31184533418469795	0.4995579623206227	1.904856191558833	0.3861642327509236	0.4626547613852271	1.88175840086486	0.3268890555721136	0.7579028527407401	1.9300358575667405	0.11381411329605182	0.5275504176833405	1.0356819074906594	0.11882739182749355	0.5830187925910304	1.441524164893052	0.14305574491149312	0.6363482639416728	1.8579199123840382	0.14805281462013675	0.44647419347722284	1.8741517944773345	0.09024726756206441	0.5130979384675263	1.8913970857685651	0.16047152180404162	0.7134644374801755	1.92044503713848	0.20400720185002427	0.38240625181567284	0.5241296513280598	0.1944318300666961	0.2588347111433277	0.28533144086751006	0.20299300501629375	0.23474079478984466	0.42974224582046616	0.3455010624853081	0.37157443594708356	0.5902483524832584	0.36923774387990105	0.41335532213328163	0.8711718552989358	0.2591944146699826	0.392701425583998	1.0491566241818095	0.1995310331459194	0.32212814273136003	1.112063015996252	0.196704392571405	0.34383119700533626	1.146597838104308	0.20272699062416996	0.3532729940733317	1.1507144514664474	0.05153933632038767	0.4003002903720313	0.5922272879780924	0.04569460671711607	0.42983420782128823	0.8515089507039288	0.11141815411844035	0.3132131218628204	1.0039856131307285	0.19199113101570606	0.24234386728507729	1.0332779059323507	0.18400202612117544	0.2332104295070052	1.085230140958853	0.13480312448876142	0.3185733794628517	1.1327048766792907
145	2.457627118644068	0.311239562852344	0.5207756797223944	1.0216157470079819	0.3314923185095846	0.5691611515136321	1.4801301627160657	0.3585639140122103	0.6562271631142814	1.860607062349882	0.31187364538786766	0.49966216309592304	1.9049638524114725	0.3877156859551644	0.46718417259333467	1.8841177555096196	0.32660363312395124	0.7632768236968197	1.9345980515537875	0.11377290050281218	0.5268752409643633	1.036488045660338	0.11923498209912953	0.5826638246881676	1.4420522009770327	0.1430533851304747	0.6363543547556606	1.8578059332645998	0.14947827887320914	0.44959729801469384	1.8744544200525803	0.09065141320688336	0.5114419186163928	1.8920434377128827	0.16044736741681093	0.7134715117863502	1.9203313829432251	0.2054335150237657	0.37780625528963263	0.52390519444652	0.19349871403722382	0.2583882785424232	0.2853826109443178	0.2026344530539917	0.2345968857287612	0.42972602013839517	0.3465268701736022	0.37187941387677503	0.5889873281815496	0.36907359668034523	0.412586603193693	0.8715775428010795	0.25901317529984197	0.39279905277214067	1.050007695299626	0.19925603369350162	0.3240595181309272	1.1127345554401136	0.1959193749437841	0.3528621659649649	1.1476607028581132	0.20136505958152937	0.3535411030189314	1.1506664340558528	0.051538569861271276	0.4002637151595392	0.5922253276184598	0.046941646521105475	0.42622526011596457	0.8509143000498373	0.11139206969222558	0.3132318474682714	1.0020013831159555	0.1933031891647905	0.24512746374097816	1.0333618147089125	0.18358918193185045	0.23694306304324586	1.0842056530193147	0.1329764009824192	0.31904202342227694	1.130862519944107
146	2.4745762711864407	0.31123814514623066	0.5206400658536969	1.0216242271458933	0.330929806766138	0.5712529398774201	1.4847035953341785	0.3585554360133669	0.6560206431650824	1.8605098668934745	0.3122739023916785	0.4981241208102043	1.904198222027124	0.38889030654993095	0.4705650771938882	1.885271988637191	0.3256872455315744	0.7632577260929887	1.9371568403781014	0.11389024948094131	0.5262644140779297	1.0374516914501948	0.11936039976941101	0.5806541383135062	1.4389218096277951	0.14306232054832077	0.6363719607564512	1.8576944526496781	0.15044612199694676	0.45169696608028115	1.874714697918052	0.09166135231435754	0.5096257176234681	1.892101513992267	0.16044088501816214	0.713485576968083	1.92031524968689	0.20649735803224853	0.37441327306125066	0.5237591883490624	0.192221042949779	0.2577618123497638	0.2854139856496116	0.20275167216001233	0.23465357402372275	0.429747593190669	0.3468672769243344	0.371851475152849	0.5880350546558789	0.3688019303555298	0.4118651505873666	0.8707623366809296	0.2589219720473551	0.3923142899404055	1.050570375113839	0.19828017999447312	0.3254604497870437	1.1125325876668684	0.19495169051663286	0.3555975350348722	1.1468505601941195	0.19973785594362814	0.35599126678127924	1.1505130610804788	0.05154124611124093	0.4002604940578546	0.5922255643942702	0.0485868912541875	0.42141329233027824	0.850277796231768	0.11177180362678356	0.3134843472568828	1.0013343596869213	0.19459435197245853	0.2484348234243609	1.0344932830243998	0.18416595609725941	0.23895315117333082	1.085131003464729	0.13302575668304167	0.3193258324922437	1.130827024776492
147	2.4915254237288136	0.3117420240998219	0.519386000772692	1.021707751614023	0.33035738267079684	0.5705048367484286	1.4873131115407054	0.3580492143108027	0.6555560301257619	1.8603329697674602	0.3132710068010409	0.494083393057749	1.9021087853289083	0.38933314559006416	0.47181171974439073	1.8853681768880182	0.3246227674326912	0.760079892832146	1.93679742418044	0.11404537723253033	0.526166129370031	1.0378252767718497	0.119586316583351	0.5778445156316396	1.435708122040865	0.14306423722857725	0.6363861229042794	1.8576804185382394	0.15083607235663637	0.4522675366898105	1.874777664145585	0.0929226495896846	0.5098954470355017	1.8913683410548803	0.16043787288819703	0.7135155264322155	1.9203847127858886	0.20692874462118158	0.37313525036059125	0.5237129037425098	0.1912328690381804	0.2572922017700248	0.28538755549061695	0.20292242552623144	0.23479882585620862	0.4298032443611549	0.3467187808085666	0.37160411388195813	0.5876667444866555	0.3685207104220611	0.4115044859935051	0.8685824521590878	0.25886985077117197	0.39147304106308956	1.0499953117282723	0.19719212622247323	0.3245237799422856	1.1105204067219812	0.19428649832012	0.351624417458454	1.1444929019521928	0.1979256945301846	0.3595861199761552	1.1500864903609869	0.05155023664357694	0.400271492962047	0.5922256264425707	0.04978691759222293	0.4177078525395825	0.8497983097070173	0.11272847347460238	0.31398009728135556	1.001300663890879	0.19581181508236475	0.25110748611237005	1.0355884303488407	0.18599464169613963	0.24065063985699958	1.086818435924386	0.13531540752002275	0.32042903795487065	1.1321564464794671
148	2.5084745762711864	0.31283572701683054	0.5162099663769489	1.0214630894571273	0.33057350172667754	0.5658158947102712	1.4818902115246182	0.3567402330555957	0.6549244619648498	1.860153117242313	0.31457389320460016	0.4887677033552823	1.8993382327323745	0.3892610908882524	0.47165372987556176	1.8848752756811833	0.32408499271387464	0.7578000925236399	1.9348913866598092	0.11411428076265519	0.5268177318594153	1.0370732037798451	0.12041389681247103	0.5750156459473873	1.4354783755603988	0.14305002885146134	0.6363792473849736	1.8577566378245773	0.15083996598862073	0.45193561463321313	1.874273696641677	0.09358601057618268	0.5132570052781522	1.890824015845463	0.16043430962306163	0.7135414744233097	1.9204736857778837	0.20702760639647627	0.3731591532381773	0.5237075734212284	0.1908318058863616	0.25712331990455256	0.2854012372320913	0.20293441158613196	0.23486544539632834	0.4298063006569244	0.34615450018373856	0.3712405724219329	0.58766084897192	0.3682877589430919	0.41135994727991876	0.8651966133800544	0.2588604489129118	0.39078901580272535	1.0484140490504028	0.19661235546756708	0.320425126847356	1.106567893412897	0.1941327789111047	0.34404419086330446	1.141669393764349	0.19652506603050615	0.36221600415575966	1.1490196753006041	0.05156190863922844	0.4002791064452605	0.5922206137782546	0.05017734042757069	0.41621055931150985	0.8495835787691616	0.11420249465225922	0.31492303945653494	1.001459773297126	0.1982581422904071	0.2558388577466717	1.0371622276377988	0.1893709176374057	0.2459799001554791	1.088767462865037	0.13934976796768858	0.32290516188716767	1.1341722154843914
149	2.5254237288135597	0.3141249983001087	0.511847883394144	1.020289265145249	0.333822360327439	0.5575149571806148	1.463305664013757	0.35497579423776104	0.6543489992497227	1.8600544830886545	0.3155533219349509	0.48479055170615826	1.8972503481434668	0.3889907803809224	0.4710742921617105	1.8840137928728595	0.3236858156624059	0.7558639974841092	1.9330598443374816	0.11402927326910502	0.5278965394239369	1.0354648965157167	0.12199049765271658	0.573254221111059	1.438036538253814	0.14303139817592092	0.6363484725517452	1.8578322339253155	0.15053260435675353	0.45116461133577357	1.872874177831977	0.09319896206628897	0.5182636497556368	1.8912876543792456	0.1604438914659268	0.7135858264463176	1.9205338204965736	0.20709482113121125	0.3734524281773272	0.5237028262839332	0.19081500660252834	0.257160182062368	0.2857436072135811	0.20257532266639489	0.23464417103741614	0.4295553106177677	0.3450634858025016	0.37066650564479225	0.5877281140525586	0.3680049306714005	0.4109199083634505	0.8616330501794045	0.25879917277278297	0.3905597259750421	1.0468965161319315	0.19671460702217208	0.31481005510252275	1.101746169830695	0.1943175122308419	0.3375723130721151	1.1396982546495316	0.1960706889732743	0.36312183226753914	1.1477008220988365	0.051571113133903015	0.40027827866744253	0.5922106909247529	0.050171772172947264	0.4162115569340816	0.8495228747310162	0.11588549186984318	0.3158434532769405	1.00163351758724	0.20319710543473396	0.2648771657038735	1.0398416164763604	0.19500605672574753	0.2576099785997897	1.0907614861131325	0.1439864663308717	0.3261745865462868	1.1360914041461085
